<mxfile host="app.diagrams.net" modified="2023-06-28T19:54:43.233Z" agent="Mozilla/5.0 (Windows NT 10.0; Win64; x64) AppleWebKit/537.36 (KHTML, like Gecko) Chrome/114.0.0.0 Safari/537.36" etag="BpuiqUeDwmPZcTxShQ-j" version="21.5.1" type="github">
  <diagram name="Page-1" id="drrQ4DIsQp6mz2_PwpE8">
    <mxGraphModel dx="1750" dy="1198" grid="1" gridSize="10" guides="1" tooltips="1" connect="1" arrows="1" fold="1" page="0" pageScale="1" pageWidth="1100" pageHeight="1700" math="0" shadow="0">
      <root>
        <mxCell id="0" />
        <mxCell id="1" parent="0" />
        <mxCell id="y-tZRomW3wRnPxOMZ4p1-291" value="" style="shape=offPageConnector;whiteSpace=wrap;html=1;fontSize=16;rotation=90;" vertex="1" parent="1">
          <mxGeometry x="842.5" y="1367.5" width="10" height="25" as="geometry" />
        </mxCell>
        <mxCell id="y-tZRomW3wRnPxOMZ4p1-2" value="" style="rounded=0;whiteSpace=wrap;html=1;" vertex="1" parent="1">
          <mxGeometry x="60" y="250" width="120" height="100" as="geometry" />
        </mxCell>
        <mxCell id="y-tZRomW3wRnPxOMZ4p1-3" value="&lt;font style=&quot;font-size: 16px;&quot;&gt;Light + BME + ETC&lt;/font&gt;" style="text;html=1;strokeColor=none;fillColor=none;align=center;verticalAlign=middle;whiteSpace=wrap;rounded=0;" vertex="1" parent="1">
          <mxGeometry x="90" y="285" width="60" height="30" as="geometry" />
        </mxCell>
        <mxCell id="y-tZRomW3wRnPxOMZ4p1-5" value="" style="endArrow=classic;html=1;rounded=0;exitX=1;exitY=0.5;exitDx=0;exitDy=0;entryX=0;entryY=0.5;entryDx=0;entryDy=0;strokeColor=#FFFFFF;" edge="1" parent="1" source="y-tZRomW3wRnPxOMZ4p1-2" target="y-tZRomW3wRnPxOMZ4p1-16">
          <mxGeometry width="50" height="50" relative="1" as="geometry">
            <mxPoint x="370" y="690" as="sourcePoint" />
            <mxPoint x="260" y="390" as="targetPoint" />
            <Array as="points">
              <mxPoint x="220" y="300" />
              <mxPoint x="220" y="385" />
            </Array>
          </mxGeometry>
        </mxCell>
        <mxCell id="y-tZRomW3wRnPxOMZ4p1-6" value="" style="endArrow=classic;html=1;rounded=0;exitX=1;exitY=0.25;exitDx=0;exitDy=0;entryX=0.5;entryY=0;entryDx=0;entryDy=0;fillColor=#a20025;strokeColor=#6F0000;" edge="1" parent="1" source="y-tZRomW3wRnPxOMZ4p1-2" target="y-tZRomW3wRnPxOMZ4p1-15">
          <mxGeometry width="50" height="50" relative="1" as="geometry">
            <mxPoint x="370" y="690" as="sourcePoint" />
            <mxPoint x="260" y="310" as="targetPoint" />
            <Array as="points">
              <mxPoint x="285" y="275" />
            </Array>
          </mxGeometry>
        </mxCell>
        <mxCell id="y-tZRomW3wRnPxOMZ4p1-7" value="" style="endArrow=classic;html=1;rounded=0;exitX=1;exitY=0.75;exitDx=0;exitDy=0;entryX=0;entryY=0.5;entryDx=0;entryDy=0;strokeColor=#EBF052;" edge="1" parent="1" source="y-tZRomW3wRnPxOMZ4p1-2" target="y-tZRomW3wRnPxOMZ4p1-17">
          <mxGeometry width="50" height="50" relative="1" as="geometry">
            <mxPoint x="370" y="690" as="sourcePoint" />
            <mxPoint x="285" y="430" as="targetPoint" />
            <Array as="points">
              <mxPoint x="210" y="325" />
              <mxPoint x="210" y="435" />
            </Array>
          </mxGeometry>
        </mxCell>
        <mxCell id="y-tZRomW3wRnPxOMZ4p1-14" value="" style="endArrow=classic;html=1;rounded=0;exitX=1;exitY=1;exitDx=0;exitDy=0;entryX=0;entryY=0.5;entryDx=0;entryDy=0;strokeColor=#000000;" edge="1" parent="1" source="y-tZRomW3wRnPxOMZ4p1-2" target="y-tZRomW3wRnPxOMZ4p1-18">
          <mxGeometry width="50" height="50" relative="1" as="geometry">
            <mxPoint x="370" y="670" as="sourcePoint" />
            <mxPoint x="260" y="490" as="targetPoint" />
            <Array as="points">
              <mxPoint x="180" y="535" />
            </Array>
          </mxGeometry>
        </mxCell>
        <mxCell id="y-tZRomW3wRnPxOMZ4p1-15" value="" style="ellipse;whiteSpace=wrap;html=1;aspect=fixed;" vertex="1" parent="1">
          <mxGeometry x="270" y="320" width="30" height="30" as="geometry" />
        </mxCell>
        <mxCell id="y-tZRomW3wRnPxOMZ4p1-16" value="" style="ellipse;whiteSpace=wrap;html=1;aspect=fixed;" vertex="1" parent="1">
          <mxGeometry x="270" y="370" width="30" height="30" as="geometry" />
        </mxCell>
        <mxCell id="y-tZRomW3wRnPxOMZ4p1-17" value="" style="ellipse;whiteSpace=wrap;html=1;aspect=fixed;" vertex="1" parent="1">
          <mxGeometry x="270" y="420" width="30" height="30" as="geometry" />
        </mxCell>
        <mxCell id="y-tZRomW3wRnPxOMZ4p1-18" value="" style="ellipse;whiteSpace=wrap;html=1;aspect=fixed;" vertex="1" parent="1">
          <mxGeometry x="270" y="520" width="30" height="30" as="geometry" />
        </mxCell>
        <mxCell id="y-tZRomW3wRnPxOMZ4p1-22" value="1" style="text;html=1;strokeColor=none;fillColor=none;align=center;verticalAlign=middle;whiteSpace=wrap;rounded=0;" vertex="1" parent="1">
          <mxGeometry x="255" y="320" width="60" height="30" as="geometry" />
        </mxCell>
        <mxCell id="y-tZRomW3wRnPxOMZ4p1-23" value="3" style="text;html=1;strokeColor=none;fillColor=none;align=center;verticalAlign=middle;whiteSpace=wrap;rounded=0;" vertex="1" parent="1">
          <mxGeometry x="255" y="370" width="60" height="30" as="geometry" />
        </mxCell>
        <mxCell id="y-tZRomW3wRnPxOMZ4p1-24" value="5" style="text;html=1;strokeColor=none;fillColor=none;align=center;verticalAlign=middle;whiteSpace=wrap;rounded=0;" vertex="1" parent="1">
          <mxGeometry x="255" y="420" width="60" height="30" as="geometry" />
        </mxCell>
        <mxCell id="y-tZRomW3wRnPxOMZ4p1-25" value="9" style="text;html=1;strokeColor=none;fillColor=none;align=center;verticalAlign=middle;whiteSpace=wrap;rounded=0;" vertex="1" parent="1">
          <mxGeometry x="255" y="520" width="60" height="30" as="geometry" />
        </mxCell>
        <mxCell id="y-tZRomW3wRnPxOMZ4p1-41" style="edgeStyle=orthogonalEdgeStyle;rounded=0;orthogonalLoop=1;jettySize=auto;html=1;exitX=0;exitY=0;exitDx=0;exitDy=0;entryX=0.5;entryY=0;entryDx=0;entryDy=0;" edge="1" parent="1" source="y-tZRomW3wRnPxOMZ4p1-26" target="y-tZRomW3wRnPxOMZ4p1-27">
          <mxGeometry relative="1" as="geometry" />
        </mxCell>
        <mxCell id="y-tZRomW3wRnPxOMZ4p1-26" value="" style="ellipse;whiteSpace=wrap;html=1;aspect=fixed;" vertex="1" parent="1">
          <mxGeometry x="270" y="470" width="30" height="30" as="geometry" />
        </mxCell>
        <mxCell id="y-tZRomW3wRnPxOMZ4p1-27" value="7" style="text;html=1;strokeColor=none;fillColor=none;align=center;verticalAlign=middle;whiteSpace=wrap;rounded=0;" vertex="1" parent="1">
          <mxGeometry x="255" y="470" width="60" height="30" as="geometry" />
        </mxCell>
        <mxCell id="y-tZRomW3wRnPxOMZ4p1-28" value="11" style="text;html=1;strokeColor=none;fillColor=none;align=center;verticalAlign=middle;whiteSpace=wrap;rounded=0;" vertex="1" parent="1">
          <mxGeometry x="255" y="570" width="60" height="30" as="geometry" />
        </mxCell>
        <mxCell id="y-tZRomW3wRnPxOMZ4p1-29" value="13" style="text;html=1;strokeColor=none;fillColor=none;align=center;verticalAlign=middle;whiteSpace=wrap;rounded=0;" vertex="1" parent="1">
          <mxGeometry x="255" y="610" width="60" height="30" as="geometry" />
        </mxCell>
        <mxCell id="y-tZRomW3wRnPxOMZ4p1-31" value="" style="rounded=0;whiteSpace=wrap;html=1;" vertex="1" parent="1">
          <mxGeometry x="560" y="285" width="120" height="60" as="geometry" />
        </mxCell>
        <mxCell id="y-tZRomW3wRnPxOMZ4p1-32" value="&lt;font style=&quot;font-size: 16px;&quot;&gt;IPS7100&lt;/font&gt;" style="text;html=1;strokeColor=none;fillColor=none;align=center;verticalAlign=middle;whiteSpace=wrap;rounded=0;" vertex="1" parent="1">
          <mxGeometry x="590" y="300" width="60" height="30" as="geometry" />
        </mxCell>
        <mxCell id="y-tZRomW3wRnPxOMZ4p1-36" value="" style="ellipse;whiteSpace=wrap;html=1;aspect=fixed;" vertex="1" parent="1">
          <mxGeometry x="340" y="320" width="30" height="30" as="geometry" />
        </mxCell>
        <mxCell id="y-tZRomW3wRnPxOMZ4p1-37" value="" style="ellipse;whiteSpace=wrap;html=1;aspect=fixed;" vertex="1" parent="1">
          <mxGeometry x="340" y="370" width="30" height="30" as="geometry" />
        </mxCell>
        <mxCell id="y-tZRomW3wRnPxOMZ4p1-38" value="" style="ellipse;whiteSpace=wrap;html=1;aspect=fixed;" vertex="1" parent="1">
          <mxGeometry x="340" y="420" width="30" height="30" as="geometry" />
        </mxCell>
        <mxCell id="y-tZRomW3wRnPxOMZ4p1-39" value="" style="ellipse;whiteSpace=wrap;html=1;aspect=fixed;" vertex="1" parent="1">
          <mxGeometry x="340" y="470" width="30" height="30" as="geometry" />
        </mxCell>
        <mxCell id="y-tZRomW3wRnPxOMZ4p1-40" value="" style="ellipse;whiteSpace=wrap;html=1;aspect=fixed;" vertex="1" parent="1">
          <mxGeometry x="340" y="520" width="30" height="30" as="geometry" />
        </mxCell>
        <mxCell id="y-tZRomW3wRnPxOMZ4p1-43" value="2" style="text;html=1;strokeColor=none;fillColor=none;align=center;verticalAlign=middle;whiteSpace=wrap;rounded=0;" vertex="1" parent="1">
          <mxGeometry x="325" y="320" width="60" height="30" as="geometry" />
        </mxCell>
        <mxCell id="y-tZRomW3wRnPxOMZ4p1-44" value="4" style="text;html=1;strokeColor=none;fillColor=none;align=center;verticalAlign=middle;whiteSpace=wrap;rounded=0;" vertex="1" parent="1">
          <mxGeometry x="325" y="370" width="60" height="30" as="geometry" />
        </mxCell>
        <mxCell id="y-tZRomW3wRnPxOMZ4p1-45" value="6" style="text;html=1;strokeColor=none;fillColor=none;align=center;verticalAlign=middle;whiteSpace=wrap;rounded=0;" vertex="1" parent="1">
          <mxGeometry x="325" y="420" width="60" height="30" as="geometry" />
        </mxCell>
        <mxCell id="y-tZRomW3wRnPxOMZ4p1-46" value="8" style="text;html=1;strokeColor=none;fillColor=none;align=center;verticalAlign=middle;whiteSpace=wrap;rounded=0;" vertex="1" parent="1">
          <mxGeometry x="325" y="470" width="60" height="30" as="geometry" />
        </mxCell>
        <mxCell id="y-tZRomW3wRnPxOMZ4p1-47" value="10" style="text;html=1;strokeColor=none;fillColor=none;align=center;verticalAlign=middle;whiteSpace=wrap;rounded=0;" vertex="1" parent="1">
          <mxGeometry x="325" y="520" width="60" height="30" as="geometry" />
        </mxCell>
        <mxCell id="y-tZRomW3wRnPxOMZ4p1-50" value="" style="rounded=1;whiteSpace=wrap;html=1;" vertex="1" parent="1">
          <mxGeometry x="830" y="400" width="120" height="60" as="geometry" />
        </mxCell>
        <mxCell id="y-tZRomW3wRnPxOMZ4p1-51" value="&lt;font style=&quot;font-size: 16px;&quot;&gt;Rain Sensor&lt;/font&gt;" style="text;html=1;strokeColor=none;fillColor=none;align=center;verticalAlign=middle;whiteSpace=wrap;rounded=0;" vertex="1" parent="1">
          <mxGeometry x="860" y="415" width="60" height="30" as="geometry" />
        </mxCell>
        <mxCell id="y-tZRomW3wRnPxOMZ4p1-54" value="" style="endArrow=classic;html=1;rounded=0;exitX=0.25;exitY=0;exitDx=0;exitDy=0;entryX=1;entryY=0.5;entryDx=0;entryDy=0;fillColor=#a20025;strokeColor=#6F0000;" edge="1" parent="1" source="y-tZRomW3wRnPxOMZ4p1-50" target="y-tZRomW3wRnPxOMZ4p1-36">
          <mxGeometry width="50" height="50" relative="1" as="geometry">
            <mxPoint x="370" y="570" as="sourcePoint" />
            <mxPoint x="460" y="380" as="targetPoint" />
            <Array as="points">
              <mxPoint x="860" y="220" />
              <mxPoint x="420" y="220" />
              <mxPoint x="420" y="335" />
            </Array>
          </mxGeometry>
        </mxCell>
        <mxCell id="y-tZRomW3wRnPxOMZ4p1-55" value="" style="endArrow=classic;html=1;rounded=0;exitX=0;exitY=0.5;exitDx=0;exitDy=0;entryX=1;entryY=0.5;entryDx=0;entryDy=0;fillColor=#a20025;strokeColor=#6F0000;" edge="1" parent="1" source="y-tZRomW3wRnPxOMZ4p1-31" target="y-tZRomW3wRnPxOMZ4p1-37">
          <mxGeometry width="50" height="50" relative="1" as="geometry">
            <mxPoint x="370" y="570" as="sourcePoint" />
            <mxPoint x="420" y="410" as="targetPoint" />
            <Array as="points">
              <mxPoint x="520" y="315" />
              <mxPoint x="520" y="385" />
            </Array>
          </mxGeometry>
        </mxCell>
        <mxCell id="y-tZRomW3wRnPxOMZ4p1-56" value="" style="endArrow=classic;html=1;rounded=0;exitX=0.25;exitY=1;exitDx=0;exitDy=0;entryX=1;entryY=0.5;entryDx=0;entryDy=0;fillColor=#1ba1e2;strokeColor=#000000;" edge="1" parent="1" source="y-tZRomW3wRnPxOMZ4p1-31" target="y-tZRomW3wRnPxOMZ4p1-38">
          <mxGeometry width="50" height="50" relative="1" as="geometry">
            <mxPoint x="370" y="570" as="sourcePoint" />
            <mxPoint x="430" y="460" as="targetPoint" />
            <Array as="points">
              <mxPoint x="590" y="380" />
              <mxPoint x="560" y="380" />
              <mxPoint x="560" y="435" />
            </Array>
          </mxGeometry>
        </mxCell>
        <mxCell id="y-tZRomW3wRnPxOMZ4p1-57" value="" style="endArrow=classic;html=1;rounded=0;exitX=0.5;exitY=1;exitDx=0;exitDy=0;entryX=1;entryY=0.5;entryDx=0;entryDy=0;strokeColor=#EBF052;" edge="1" parent="1" source="y-tZRomW3wRnPxOMZ4p1-31" target="y-tZRomW3wRnPxOMZ4p1-39">
          <mxGeometry width="50" height="50" relative="1" as="geometry">
            <mxPoint x="370" y="570" as="sourcePoint" />
            <mxPoint x="440" y="530" as="targetPoint" />
            <Array as="points">
              <mxPoint x="620" y="390" />
              <mxPoint x="580" y="390" />
              <mxPoint x="580" y="485" />
            </Array>
          </mxGeometry>
        </mxCell>
        <mxCell id="y-tZRomW3wRnPxOMZ4p1-58" value="" style="endArrow=classic;html=1;rounded=0;exitX=0.75;exitY=1;exitDx=0;exitDy=0;entryX=1;entryY=0.5;entryDx=0;entryDy=0;" edge="1" parent="1" source="y-tZRomW3wRnPxOMZ4p1-31" target="y-tZRomW3wRnPxOMZ4p1-40">
          <mxGeometry width="50" height="50" relative="1" as="geometry">
            <mxPoint x="370" y="570" as="sourcePoint" />
            <mxPoint x="420" y="520" as="targetPoint" />
            <Array as="points">
              <mxPoint x="650" y="440" />
              <mxPoint x="610" y="440" />
              <mxPoint x="610" y="535" />
            </Array>
          </mxGeometry>
        </mxCell>
        <mxCell id="y-tZRomW3wRnPxOMZ4p1-59" value="" style="endArrow=classic;html=1;rounded=0;exitX=0;exitY=0.5;exitDx=0;exitDy=0;entryX=1;entryY=0.5;entryDx=0;entryDy=0;strokeColor=#000000;" edge="1" parent="1" source="y-tZRomW3wRnPxOMZ4p1-50" target="y-tZRomW3wRnPxOMZ4p1-61">
          <mxGeometry width="50" height="50" relative="1" as="geometry">
            <mxPoint x="370" y="570" as="sourcePoint" />
            <mxPoint x="390" y="630" as="targetPoint" />
            <Array as="points">
              <mxPoint x="770" y="430" />
              <mxPoint x="770" y="625" />
            </Array>
          </mxGeometry>
        </mxCell>
        <mxCell id="y-tZRomW3wRnPxOMZ4p1-61" value="" style="ellipse;whiteSpace=wrap;html=1;aspect=fixed;" vertex="1" parent="1">
          <mxGeometry x="340" y="610" width="30" height="30" as="geometry" />
        </mxCell>
        <mxCell id="y-tZRomW3wRnPxOMZ4p1-62" value="12" style="text;html=1;strokeColor=none;fillColor=none;align=center;verticalAlign=middle;whiteSpace=wrap;rounded=0;" vertex="1" parent="1">
          <mxGeometry x="325" y="570" width="60" height="30" as="geometry" />
        </mxCell>
        <mxCell id="y-tZRomW3wRnPxOMZ4p1-63" value="14" style="text;html=1;strokeColor=none;fillColor=none;align=center;verticalAlign=middle;whiteSpace=wrap;rounded=0;" vertex="1" parent="1">
          <mxGeometry x="325" y="610" width="60" height="30" as="geometry" />
        </mxCell>
        <mxCell id="y-tZRomW3wRnPxOMZ4p1-67" value="" style="ellipse;whiteSpace=wrap;html=1;aspect=fixed;" vertex="1" parent="1">
          <mxGeometry x="270" y="660" width="30" height="30" as="geometry" />
        </mxCell>
        <mxCell id="y-tZRomW3wRnPxOMZ4p1-68" value="15" style="text;html=1;strokeColor=none;fillColor=none;align=center;verticalAlign=middle;whiteSpace=wrap;rounded=0;" vertex="1" parent="1">
          <mxGeometry x="255" y="660" width="60" height="30" as="geometry" />
        </mxCell>
        <mxCell id="y-tZRomW3wRnPxOMZ4p1-69" value="" style="endArrow=classic;html=1;rounded=0;exitX=0.25;exitY=1;exitDx=0;exitDy=0;entryX=0.5;entryY=1;entryDx=0;entryDy=0;strokeColor=#EBF052;" edge="1" parent="1" source="y-tZRomW3wRnPxOMZ4p1-50" target="y-tZRomW3wRnPxOMZ4p1-68">
          <mxGeometry width="50" height="50" relative="1" as="geometry">
            <mxPoint x="370" y="720" as="sourcePoint" />
            <mxPoint x="420" y="670" as="targetPoint" />
            <Array as="points">
              <mxPoint x="860" y="690" />
            </Array>
          </mxGeometry>
        </mxCell>
        <mxCell id="y-tZRomW3wRnPxOMZ4p1-70" value="16" style="text;html=1;strokeColor=none;fillColor=none;align=center;verticalAlign=middle;whiteSpace=wrap;rounded=0;" vertex="1" parent="1">
          <mxGeometry x="325" y="660" width="60" height="30" as="geometry" />
        </mxCell>
        <mxCell id="y-tZRomW3wRnPxOMZ4p1-72" value="" style="ellipse;whiteSpace=wrap;html=1;aspect=fixed;" vertex="1" parent="1">
          <mxGeometry x="270" y="710" width="30" height="30" as="geometry" />
        </mxCell>
        <mxCell id="y-tZRomW3wRnPxOMZ4p1-73" value="17" style="text;html=1;strokeColor=none;fillColor=none;align=center;verticalAlign=middle;whiteSpace=wrap;rounded=0;" vertex="1" parent="1">
          <mxGeometry x="255" y="710" width="60" height="30" as="geometry" />
        </mxCell>
        <mxCell id="y-tZRomW3wRnPxOMZ4p1-74" value="18" style="text;html=1;strokeColor=none;fillColor=none;align=center;verticalAlign=middle;whiteSpace=wrap;rounded=0;" vertex="1" parent="1">
          <mxGeometry x="325" y="710" width="60" height="30" as="geometry" />
        </mxCell>
        <mxCell id="y-tZRomW3wRnPxOMZ4p1-75" value="19&lt;br&gt;" style="text;html=1;strokeColor=none;fillColor=none;align=center;verticalAlign=middle;whiteSpace=wrap;rounded=0;" vertex="1" parent="1">
          <mxGeometry x="255" y="760" width="60" height="30" as="geometry" />
        </mxCell>
        <mxCell id="y-tZRomW3wRnPxOMZ4p1-80" value="20" style="text;html=1;strokeColor=none;fillColor=none;align=center;verticalAlign=middle;whiteSpace=wrap;rounded=0;" vertex="1" parent="1">
          <mxGeometry x="325" y="760" width="60" height="30" as="geometry" />
        </mxCell>
        <mxCell id="y-tZRomW3wRnPxOMZ4p1-81" value="21" style="text;html=1;strokeColor=none;fillColor=none;align=center;verticalAlign=middle;whiteSpace=wrap;rounded=0;" vertex="1" parent="1">
          <mxGeometry x="255" y="810" width="60" height="30" as="geometry" />
        </mxCell>
        <mxCell id="y-tZRomW3wRnPxOMZ4p1-82" value="22" style="text;html=1;strokeColor=none;fillColor=none;align=center;verticalAlign=middle;whiteSpace=wrap;rounded=0;" vertex="1" parent="1">
          <mxGeometry x="325" y="810" width="60" height="30" as="geometry" />
        </mxCell>
        <mxCell id="y-tZRomW3wRnPxOMZ4p1-83" value="23" style="text;html=1;strokeColor=none;fillColor=none;align=center;verticalAlign=middle;whiteSpace=wrap;rounded=0;" vertex="1" parent="1">
          <mxGeometry x="255" y="860" width="60" height="30" as="geometry" />
        </mxCell>
        <mxCell id="y-tZRomW3wRnPxOMZ4p1-84" value="24" style="text;html=1;strokeColor=none;fillColor=none;align=center;verticalAlign=middle;whiteSpace=wrap;rounded=0;" vertex="1" parent="1">
          <mxGeometry x="325" y="860" width="60" height="30" as="geometry" />
        </mxCell>
        <mxCell id="y-tZRomW3wRnPxOMZ4p1-85" value="25" style="text;html=1;strokeColor=none;fillColor=none;align=center;verticalAlign=middle;whiteSpace=wrap;rounded=0;" vertex="1" parent="1">
          <mxGeometry x="255" y="910" width="60" height="30" as="geometry" />
        </mxCell>
        <mxCell id="y-tZRomW3wRnPxOMZ4p1-86" value="26" style="text;html=1;strokeColor=none;fillColor=none;align=center;verticalAlign=middle;whiteSpace=wrap;rounded=0;" vertex="1" parent="1">
          <mxGeometry x="325" y="910" width="60" height="30" as="geometry" />
        </mxCell>
        <mxCell id="y-tZRomW3wRnPxOMZ4p1-88" value="" style="ellipse;whiteSpace=wrap;html=1;aspect=fixed;" vertex="1" parent="1">
          <mxGeometry x="270" y="960" width="30" height="30" as="geometry" />
        </mxCell>
        <mxCell id="y-tZRomW3wRnPxOMZ4p1-89" value="" style="ellipse;whiteSpace=wrap;html=1;aspect=fixed;" vertex="1" parent="1">
          <mxGeometry x="340" y="960" width="30" height="30" as="geometry" />
        </mxCell>
        <mxCell id="y-tZRomW3wRnPxOMZ4p1-90" value="27" style="text;html=1;strokeColor=none;fillColor=none;align=center;verticalAlign=middle;whiteSpace=wrap;rounded=0;" vertex="1" parent="1">
          <mxGeometry x="255" y="960" width="60" height="30" as="geometry" />
        </mxCell>
        <mxCell id="y-tZRomW3wRnPxOMZ4p1-91" value="28" style="text;html=1;strokeColor=none;fillColor=none;align=center;verticalAlign=middle;whiteSpace=wrap;rounded=0;" vertex="1" parent="1">
          <mxGeometry x="325" y="960" width="60" height="30" as="geometry" />
        </mxCell>
        <mxCell id="y-tZRomW3wRnPxOMZ4p1-92" value="29" style="text;html=1;strokeColor=none;fillColor=none;align=center;verticalAlign=middle;whiteSpace=wrap;rounded=0;" vertex="1" parent="1">
          <mxGeometry x="255" y="1010" width="60" height="30" as="geometry" />
        </mxCell>
        <mxCell id="y-tZRomW3wRnPxOMZ4p1-94" value="30" style="text;html=1;strokeColor=none;fillColor=none;align=center;verticalAlign=middle;whiteSpace=wrap;rounded=0;" vertex="1" parent="1">
          <mxGeometry x="325" y="1010" width="60" height="30" as="geometry" />
        </mxCell>
        <mxCell id="y-tZRomW3wRnPxOMZ4p1-95" value="31" style="text;html=1;strokeColor=none;fillColor=none;align=center;verticalAlign=middle;whiteSpace=wrap;rounded=0;" vertex="1" parent="1">
          <mxGeometry x="255" y="1060" width="60" height="30" as="geometry" />
        </mxCell>
        <mxCell id="y-tZRomW3wRnPxOMZ4p1-96" value="32" style="text;html=1;strokeColor=none;fillColor=none;align=center;verticalAlign=middle;whiteSpace=wrap;rounded=0;" vertex="1" parent="1">
          <mxGeometry x="325" y="1060" width="60" height="30" as="geometry" />
        </mxCell>
        <mxCell id="y-tZRomW3wRnPxOMZ4p1-97" value="" style="ellipse;whiteSpace=wrap;html=1;aspect=fixed;" vertex="1" parent="1">
          <mxGeometry x="270" y="1110" width="30" height="30" as="geometry" />
        </mxCell>
        <mxCell id="y-tZRomW3wRnPxOMZ4p1-98" value="33" style="text;html=1;strokeColor=none;fillColor=none;align=center;verticalAlign=middle;whiteSpace=wrap;rounded=0;" vertex="1" parent="1">
          <mxGeometry x="255" y="1110" width="60" height="30" as="geometry" />
        </mxCell>
        <mxCell id="y-tZRomW3wRnPxOMZ4p1-99" value="" style="endArrow=classic;html=1;rounded=0;exitX=0.417;exitY=1;exitDx=0;exitDy=0;exitPerimeter=0;entryX=1;entryY=0;entryDx=0;entryDy=0;" edge="1" parent="1" source="y-tZRomW3wRnPxOMZ4p1-50" target="y-tZRomW3wRnPxOMZ4p1-97">
          <mxGeometry width="50" height="50" relative="1" as="geometry">
            <mxPoint x="460" y="840" as="sourcePoint" />
            <mxPoint x="370" y="1200" as="targetPoint" />
            <Array as="points">
              <mxPoint x="880" y="1114" />
            </Array>
          </mxGeometry>
        </mxCell>
        <mxCell id="y-tZRomW3wRnPxOMZ4p1-100" value="34" style="text;html=1;strokeColor=none;fillColor=none;align=center;verticalAlign=middle;whiteSpace=wrap;rounded=0;" vertex="1" parent="1">
          <mxGeometry x="325" y="1110" width="60" height="30" as="geometry" />
        </mxCell>
        <mxCell id="y-tZRomW3wRnPxOMZ4p1-102" value="35" style="text;html=1;strokeColor=none;fillColor=none;align=center;verticalAlign=middle;whiteSpace=wrap;rounded=0;" vertex="1" parent="1">
          <mxGeometry x="255" y="1160" width="60" height="30" as="geometry" />
        </mxCell>
        <mxCell id="y-tZRomW3wRnPxOMZ4p1-103" value="36" style="text;html=1;strokeColor=none;fillColor=none;align=center;verticalAlign=middle;whiteSpace=wrap;rounded=0;" vertex="1" parent="1">
          <mxGeometry x="325" y="1160" width="60" height="30" as="geometry" />
        </mxCell>
        <mxCell id="y-tZRomW3wRnPxOMZ4p1-104" value="37" style="text;html=1;strokeColor=none;fillColor=none;align=center;verticalAlign=middle;whiteSpace=wrap;rounded=0;" vertex="1" parent="1">
          <mxGeometry x="255" y="1210" width="60" height="30" as="geometry" />
        </mxCell>
        <mxCell id="y-tZRomW3wRnPxOMZ4p1-105" value="38" style="text;html=1;strokeColor=none;fillColor=none;align=center;verticalAlign=middle;whiteSpace=wrap;rounded=0;" vertex="1" parent="1">
          <mxGeometry x="325" y="1210" width="60" height="30" as="geometry" />
        </mxCell>
        <mxCell id="y-tZRomW3wRnPxOMZ4p1-107" value="" style="ellipse;whiteSpace=wrap;html=1;aspect=fixed;" vertex="1" parent="1">
          <mxGeometry x="270" y="1260" width="30" height="30" as="geometry" />
        </mxCell>
        <mxCell id="y-tZRomW3wRnPxOMZ4p1-108" value="39" style="text;html=1;strokeColor=none;fillColor=none;align=center;verticalAlign=middle;whiteSpace=wrap;rounded=0;" vertex="1" parent="1">
          <mxGeometry x="255" y="1260" width="60" height="30" as="geometry" />
        </mxCell>
        <mxCell id="y-tZRomW3wRnPxOMZ4p1-110" value="40" style="ellipse;whiteSpace=wrap;html=1;aspect=fixed;" vertex="1" parent="1">
          <mxGeometry x="340" y="1260" width="30" height="30" as="geometry" />
        </mxCell>
        <mxCell id="y-tZRomW3wRnPxOMZ4p1-114" value="b/w&amp;nbsp;&lt;br&gt;Battery&amp;nbsp;&lt;br&gt;&amp;amp;&lt;br&gt;Ordroid" style="rounded=1;whiteSpace=wrap;html=1;" vertex="1" parent="1">
          <mxGeometry x="40" y="1440" width="60" height="60" as="geometry" />
        </mxCell>
        <mxCell id="y-tZRomW3wRnPxOMZ4p1-118" value="" style="endArrow=classic;html=1;rounded=0;exitX=0.75;exitY=0;exitDx=0;exitDy=0;entryX=0;entryY=0.5;entryDx=0;entryDy=0;fillColor=#a20025;strokeColor=#6F0000;" edge="1" parent="1" source="y-tZRomW3wRnPxOMZ4p1-117" target="y-tZRomW3wRnPxOMZ4p1-72">
          <mxGeometry width="50" height="50" relative="1" as="geometry">
            <mxPoint x="460" y="1180" as="sourcePoint" />
            <mxPoint x="240" y="740" as="targetPoint" />
            <Array as="points">
              <mxPoint x="170" y="725" />
            </Array>
          </mxGeometry>
        </mxCell>
        <mxCell id="y-tZRomW3wRnPxOMZ4p1-125" value="b/w&amp;nbsp;&lt;br&gt;Solar&lt;br&gt;or&lt;br&gt;Battery" style="rounded=1;whiteSpace=wrap;html=1;" vertex="1" parent="1">
          <mxGeometry x="40" y="1570" width="60" height="60" as="geometry" />
        </mxCell>
        <mxCell id="y-tZRomW3wRnPxOMZ4p1-126" value="&lt;font style=&quot;font-size: 16px;&quot;&gt;INA219&lt;/font&gt;" style="rounded=1;whiteSpace=wrap;html=1;" vertex="1" parent="1">
          <mxGeometry x="100" y="1570" width="90" height="60" as="geometry" />
        </mxCell>
        <mxCell id="y-tZRomW3wRnPxOMZ4p1-127" value="" style="endArrow=classic;html=1;rounded=0;exitDx=0;exitDy=0;entryX=0;entryY=0.5;entryDx=0;entryDy=0;strokeColor=#EBF052;" edge="1" parent="1" source="y-tZRomW3wRnPxOMZ4p1-160" target="y-tZRomW3wRnPxOMZ4p1-89">
          <mxGeometry width="50" height="50" relative="1" as="geometry">
            <mxPoint x="270" y="1270" as="sourcePoint" />
            <mxPoint x="540" y="1040" as="targetPoint" />
            <Array as="points">
              <mxPoint x="230" y="940" />
              <mxPoint x="320" y="940" />
              <mxPoint x="320" y="975" />
            </Array>
          </mxGeometry>
        </mxCell>
        <mxCell id="y-tZRomW3wRnPxOMZ4p1-129" value="" style="endArrow=classic;html=1;rounded=0;exitX=1;exitY=0.75;exitDx=0;exitDy=0;entryX=0;entryY=0.5;entryDx=0;entryDy=0;" edge="1" parent="1" target="y-tZRomW3wRnPxOMZ4p1-88">
          <mxGeometry width="50" height="50" relative="1" as="geometry">
            <mxPoint x="190" y="1650" as="sourcePoint" />
            <mxPoint x="250" y="930" as="targetPoint" />
            <Array as="points">
              <mxPoint x="250" y="1650" />
              <mxPoint x="250" y="975" />
            </Array>
          </mxGeometry>
        </mxCell>
        <mxCell id="y-tZRomW3wRnPxOMZ4p1-132" value="" style="endArrow=none;html=1;rounded=0;exitDx=0;exitDy=0;fillColor=#a20025;strokeColor=#6F0000;" edge="1" parent="1" source="y-tZRomW3wRnPxOMZ4p1-140">
          <mxGeometry width="50" height="50" relative="1" as="geometry">
            <mxPoint x="270" y="1490" as="sourcePoint" />
            <mxPoint x="170" y="1380" as="targetPoint" />
            <Array as="points" />
          </mxGeometry>
        </mxCell>
        <mxCell id="y-tZRomW3wRnPxOMZ4p1-141" value="" style="endArrow=none;html=1;rounded=0;exitX=1;exitY=0.25;exitDx=0;exitDy=0;fillColor=#a20025;strokeColor=#6F0000;" edge="1" parent="1" source="y-tZRomW3wRnPxOMZ4p1-126" target="y-tZRomW3wRnPxOMZ4p1-140">
          <mxGeometry width="50" height="50" relative="1" as="geometry">
            <mxPoint x="190" y="1585" as="sourcePoint" />
            <mxPoint x="170" y="1380" as="targetPoint" />
            <Array as="points">
              <mxPoint x="220" y="1585" />
              <mxPoint x="220" y="1380" />
            </Array>
          </mxGeometry>
        </mxCell>
        <mxCell id="y-tZRomW3wRnPxOMZ4p1-140" value="" style="shape=waypoint;sketch=0;fillStyle=solid;size=6;pointerEvents=1;points=[];fillColor=#a20025;resizable=0;rotatable=0;perimeter=centerPerimeter;snapToPoint=1;fontColor=#ffffff;strokeColor=#6F0000;" vertex="1" parent="1">
          <mxGeometry x="160" y="1370" width="20" height="20" as="geometry" />
        </mxCell>
        <mxCell id="y-tZRomW3wRnPxOMZ4p1-145" value="" style="endArrow=none;html=1;rounded=0;exitX=0.5;exitY=0;exitDx=0;exitDy=0;strokeColor=#EBF052;" edge="1" parent="1" source="y-tZRomW3wRnPxOMZ4p1-117">
          <mxGeometry width="50" height="50" relative="1" as="geometry">
            <mxPoint x="230" y="1210" as="sourcePoint" />
            <mxPoint x="160" y="1260" as="targetPoint" />
            <Array as="points">
              <mxPoint x="145" y="1260" />
            </Array>
          </mxGeometry>
        </mxCell>
        <mxCell id="y-tZRomW3wRnPxOMZ4p1-147" value="" style="curved=1;endArrow=classic;html=1;rounded=0;strokeColor=#EBF052;" edge="1" parent="1">
          <mxGeometry width="50" height="50" relative="1" as="geometry">
            <mxPoint x="160" y="1260" as="sourcePoint" />
            <mxPoint x="210" y="1260" as="targetPoint" />
            <Array as="points">
              <mxPoint x="160" y="1240" />
              <mxPoint x="210" y="1240" />
            </Array>
          </mxGeometry>
        </mxCell>
        <mxCell id="y-tZRomW3wRnPxOMZ4p1-154" value="" style="endArrow=none;html=1;rounded=0;strokeColor=#EBF052;" edge="1" parent="1" source="y-tZRomW3wRnPxOMZ4p1-160">
          <mxGeometry width="50" height="50" relative="1" as="geometry">
            <mxPoint x="210" y="1260" as="sourcePoint" />
            <mxPoint x="230" y="1260" as="targetPoint" />
          </mxGeometry>
        </mxCell>
        <mxCell id="y-tZRomW3wRnPxOMZ4p1-162" value="" style="endArrow=none;html=1;rounded=0;exitX=1;exitY=0.5;exitDx=0;exitDy=0;strokeColor=#EBF052;" edge="1" parent="1" source="y-tZRomW3wRnPxOMZ4p1-126">
          <mxGeometry width="50" height="50" relative="1" as="geometry">
            <mxPoint x="650" y="1410" as="sourcePoint" />
            <mxPoint x="230" y="1260" as="targetPoint" />
            <Array as="points">
              <mxPoint x="230" y="1600" />
            </Array>
          </mxGeometry>
        </mxCell>
        <mxCell id="y-tZRomW3wRnPxOMZ4p1-163" value="" style="endArrow=none;html=1;rounded=0;exitX=0.5;exitY=0;exitDx=0;exitDy=0;" edge="1" parent="1" source="y-tZRomW3wRnPxOMZ4p1-114">
          <mxGeometry width="50" height="50" relative="1" as="geometry">
            <mxPoint x="650" y="1220" as="sourcePoint" />
            <mxPoint x="150" y="1180" as="targetPoint" />
            <Array as="points">
              <mxPoint x="70" y="1180" />
            </Array>
          </mxGeometry>
        </mxCell>
        <mxCell id="y-tZRomW3wRnPxOMZ4p1-164" value="" style="curved=1;endArrow=classic;html=1;rounded=0;strokeColor=#FFFFFF;" edge="1" parent="1">
          <mxGeometry width="50" height="50" relative="1" as="geometry">
            <mxPoint x="150" y="1180" as="sourcePoint" />
            <mxPoint x="180" y="1180" as="targetPoint" />
            <Array as="points">
              <mxPoint x="150" y="1160" />
              <mxPoint x="180" y="1160" />
            </Array>
          </mxGeometry>
        </mxCell>
        <mxCell id="y-tZRomW3wRnPxOMZ4p1-165" value="" style="endArrow=none;html=1;rounded=0;strokeColor=#EBF052;" edge="1" parent="1" target="y-tZRomW3wRnPxOMZ4p1-160">
          <mxGeometry width="50" height="50" relative="1" as="geometry">
            <mxPoint x="210" y="1260" as="sourcePoint" />
            <mxPoint x="230" y="1260" as="targetPoint" />
          </mxGeometry>
        </mxCell>
        <mxCell id="y-tZRomW3wRnPxOMZ4p1-160" value="" style="shape=waypoint;sketch=0;fillStyle=solid;size=6;pointerEvents=1;points=[];fillColor=none;resizable=0;rotatable=0;perimeter=centerPerimeter;snapToPoint=1;strokeColor=#EBF052;" vertex="1" parent="1">
          <mxGeometry x="220" y="1250" width="20" height="20" as="geometry" />
        </mxCell>
        <mxCell id="y-tZRomW3wRnPxOMZ4p1-166" value="" style="endArrow=none;html=1;rounded=0;" edge="1" parent="1">
          <mxGeometry width="50" height="50" relative="1" as="geometry">
            <mxPoint x="180" y="1180" as="sourcePoint" />
            <mxPoint x="210" y="1180" as="targetPoint" />
          </mxGeometry>
        </mxCell>
        <mxCell id="y-tZRomW3wRnPxOMZ4p1-167" value="" style="curved=1;endArrow=classic;html=1;rounded=0;strokeColor=#FFFFFF;" edge="1" parent="1">
          <mxGeometry width="50" height="50" relative="1" as="geometry">
            <mxPoint x="210" y="1180" as="sourcePoint" />
            <mxPoint x="240" y="1180" as="targetPoint" />
            <Array as="points">
              <mxPoint x="210" y="1160" />
              <mxPoint x="240" y="1160" />
            </Array>
          </mxGeometry>
        </mxCell>
        <mxCell id="y-tZRomW3wRnPxOMZ4p1-168" value="" style="endArrow=none;html=1;rounded=0;" edge="1" parent="1" source="y-tZRomW3wRnPxOMZ4p1-170">
          <mxGeometry width="50" height="50" relative="1" as="geometry">
            <mxPoint x="240" y="1180" as="sourcePoint" />
            <mxPoint x="250" y="1180" as="targetPoint" />
          </mxGeometry>
        </mxCell>
        <mxCell id="y-tZRomW3wRnPxOMZ4p1-171" value="" style="endArrow=none;html=1;rounded=0;" edge="1" parent="1" target="y-tZRomW3wRnPxOMZ4p1-170">
          <mxGeometry width="50" height="50" relative="1" as="geometry">
            <mxPoint x="240" y="1180" as="sourcePoint" />
            <mxPoint x="250" y="1180" as="targetPoint" />
          </mxGeometry>
        </mxCell>
        <mxCell id="y-tZRomW3wRnPxOMZ4p1-170" value="" style="shape=waypoint;sketch=0;fillStyle=solid;size=6;pointerEvents=1;points=[];fillColor=none;resizable=0;rotatable=0;perimeter=centerPerimeter;snapToPoint=1;" vertex="1" parent="1">
          <mxGeometry x="240" y="1170" width="20" height="20" as="geometry" />
        </mxCell>
        <mxCell id="y-tZRomW3wRnPxOMZ4p1-173" value="" style="endArrow=none;html=1;rounded=0;exitX=1;exitY=0.5;exitDx=0;exitDy=0;strokeColor=#000000;" edge="1" parent="1" source="y-tZRomW3wRnPxOMZ4p1-117">
          <mxGeometry width="50" height="50" relative="1" as="geometry">
            <mxPoint x="650" y="1190" as="sourcePoint" />
            <mxPoint x="210" y="1470" as="targetPoint" />
          </mxGeometry>
        </mxCell>
        <mxCell id="y-tZRomW3wRnPxOMZ4p1-174" value="" style="curved=1;endArrow=classic;html=1;rounded=0;strokeColor=#000000;" edge="1" parent="1">
          <mxGeometry width="50" height="50" relative="1" as="geometry">
            <mxPoint x="210" y="1470" as="sourcePoint" />
            <mxPoint x="260" y="1470" as="targetPoint" />
            <Array as="points">
              <mxPoint x="210" y="1450" />
              <mxPoint x="260" y="1450" />
            </Array>
          </mxGeometry>
        </mxCell>
        <mxCell id="y-tZRomW3wRnPxOMZ4p1-175" value="&lt;font style=&quot;font-size: 16px;&quot;&gt;Battery&lt;/font&gt;" style="rounded=0;whiteSpace=wrap;html=1;" vertex="1" parent="1">
          <mxGeometry x="860" y="1330" width="120" height="60" as="geometry" />
        </mxCell>
        <mxCell id="y-tZRomW3wRnPxOMZ4p1-176" value="" style="endArrow=none;html=1;rounded=0;fillColor=#a20025;strokeColor=#6F0000;" edge="1" parent="1">
          <mxGeometry width="50" height="50" relative="1" as="geometry">
            <mxPoint x="120" y="1630" as="sourcePoint" />
            <mxPoint x="120" y="1830" as="targetPoint" />
          </mxGeometry>
        </mxCell>
        <mxCell id="y-tZRomW3wRnPxOMZ4p1-177" value="" style="endArrow=none;html=1;rounded=0;fillColor=#a20025;strokeColor=#6F0000;" edge="1" parent="1" target="y-tZRomW3wRnPxOMZ4p1-178">
          <mxGeometry width="50" height="50" relative="1" as="geometry">
            <mxPoint x="120" y="1830" as="sourcePoint" />
            <mxPoint x="450" y="1830" as="targetPoint" />
          </mxGeometry>
        </mxCell>
        <mxCell id="y-tZRomW3wRnPxOMZ4p1-178" value="&lt;font style=&quot;font-size: 16px;&quot;&gt;Solar&lt;/font&gt;" style="rounded=1;whiteSpace=wrap;html=1;" vertex="1" parent="1">
          <mxGeometry x="390.0000000000002" y="1800" width="120" height="60" as="geometry" />
        </mxCell>
        <mxCell id="y-tZRomW3wRnPxOMZ4p1-179" value="" style="endArrow=none;html=1;rounded=0;exitX=0.75;exitY=1;exitDx=0;exitDy=0;fillColor=#a20025;strokeColor=#6F0000;" edge="1" parent="1" source="y-tZRomW3wRnPxOMZ4p1-126">
          <mxGeometry width="50" height="50" relative="1" as="geometry">
            <mxPoint x="160" y="1640" as="sourcePoint" />
            <mxPoint x="168" y="1760" as="targetPoint" />
          </mxGeometry>
        </mxCell>
        <mxCell id="y-tZRomW3wRnPxOMZ4p1-182" value="" style="endArrow=classic;html=1;rounded=0;fillColor=#a20025;strokeColor=#6F0000;" edge="1" parent="1">
          <mxGeometry width="50" height="50" relative="1" as="geometry">
            <mxPoint x="170" y="1760" as="sourcePoint" />
            <mxPoint x="880" y="1760" as="targetPoint" />
          </mxGeometry>
        </mxCell>
        <mxCell id="y-tZRomW3wRnPxOMZ4p1-186" value="" style="endArrow=none;html=1;rounded=0;fontSize=12;startSize=8;endSize=8;curved=1;fillColor=#a20025;strokeColor=#6F0000;" edge="1" parent="1" target="y-tZRomW3wRnPxOMZ4p1-301">
          <mxGeometry width="50" height="50" relative="1" as="geometry">
            <mxPoint x="260" y="1520" as="sourcePoint" />
            <mxPoint x="570" y="1520" as="targetPoint" />
          </mxGeometry>
        </mxCell>
        <mxCell id="y-tZRomW3wRnPxOMZ4p1-187" value="" style="endArrow=none;html=1;rounded=0;fontSize=12;startSize=8;endSize=8;curved=1;exitX=0.667;exitY=1;exitDx=0;exitDy=0;exitPerimeter=0;fillColor=#a20025;strokeColor=#6F0000;" edge="1" parent="1" source="y-tZRomW3wRnPxOMZ4p1-117">
          <mxGeometry width="50" height="50" relative="1" as="geometry">
            <mxPoint x="650" y="1270" as="sourcePoint" />
            <mxPoint x="160" y="1520" as="targetPoint" />
          </mxGeometry>
        </mxCell>
        <mxCell id="y-tZRomW3wRnPxOMZ4p1-188" value="" style="curved=1;endArrow=classic;html=1;rounded=0;strokeColor=#6F0000;fillColor=#a20025;" edge="1" parent="1">
          <mxGeometry width="50" height="50" relative="1" as="geometry">
            <mxPoint x="210" y="1520" as="sourcePoint" />
            <mxPoint x="260" y="1520" as="targetPoint" />
            <Array as="points">
              <mxPoint x="210" y="1500" />
              <mxPoint x="260" y="1500" />
            </Array>
          </mxGeometry>
        </mxCell>
        <mxCell id="y-tZRomW3wRnPxOMZ4p1-189" value="" style="endArrow=none;html=1;rounded=0;fontSize=12;startSize=8;endSize=8;curved=1;fillColor=#a20025;strokeColor=#6F0000;" edge="1" parent="1">
          <mxGeometry width="50" height="50" relative="1" as="geometry">
            <mxPoint x="210" y="1520" as="sourcePoint" />
            <mxPoint x="160" y="1520" as="targetPoint" />
          </mxGeometry>
        </mxCell>
        <mxCell id="y-tZRomW3wRnPxOMZ4p1-190" value="" style="endArrow=none;html=1;rounded=0;fontSize=12;startSize=8;endSize=8;curved=1;entryX=1;entryY=0.75;entryDx=0;entryDy=0;fillColor=#a20025;strokeColor=#6F0000;" edge="1" parent="1" target="y-tZRomW3wRnPxOMZ4p1-117">
          <mxGeometry width="50" height="50" relative="1" as="geometry">
            <mxPoint x="190" y="1520" as="sourcePoint" />
            <mxPoint x="430" y="1340" as="targetPoint" />
          </mxGeometry>
        </mxCell>
        <mxCell id="y-tZRomW3wRnPxOMZ4p1-191" value="" style="endArrow=none;html=1;rounded=0;fontSize=12;startSize=8;endSize=8;curved=1;entryX=0.443;entryY=0.996;entryDx=0;entryDy=0;entryPerimeter=0;fillColor=#a20025;strokeColor=#6F0000;" edge="1" parent="1" target="y-tZRomW3wRnPxOMZ4p1-117">
          <mxGeometry width="50" height="50" relative="1" as="geometry">
            <mxPoint x="140" y="1540" as="sourcePoint" />
            <mxPoint x="430" y="1340" as="targetPoint" />
          </mxGeometry>
        </mxCell>
        <mxCell id="y-tZRomW3wRnPxOMZ4p1-192" value="" style="endArrow=none;html=1;rounded=0;fontSize=12;startSize=8;endSize=8;curved=1;fillColor=#a20025;strokeColor=#6F0000;" edge="1" parent="1">
          <mxGeometry width="50" height="50" relative="1" as="geometry">
            <mxPoint x="140" y="1540" as="sourcePoint" />
            <mxPoint x="210" y="1540" as="targetPoint" />
          </mxGeometry>
        </mxCell>
        <mxCell id="y-tZRomW3wRnPxOMZ4p1-195" value="" style="curved=1;endArrow=classic;html=1;rounded=0;strokeColor=#6F0000;fillColor=#a20025;" edge="1" parent="1">
          <mxGeometry width="50" height="50" relative="1" as="geometry">
            <mxPoint x="210" y="1540" as="sourcePoint" />
            <mxPoint x="260" y="1540" as="targetPoint" />
            <Array as="points">
              <mxPoint x="210" y="1520" />
              <mxPoint x="260" y="1520" />
            </Array>
          </mxGeometry>
        </mxCell>
        <mxCell id="y-tZRomW3wRnPxOMZ4p1-197" value="" style="endArrow=none;html=1;rounded=0;fontSize=12;startSize=8;endSize=8;curved=1;fillColor=#a20025;strokeColor=#6F0000;" edge="1" parent="1">
          <mxGeometry width="50" height="50" relative="1" as="geometry">
            <mxPoint x="260" y="1540" as="sourcePoint" />
            <mxPoint x="580" y="1540" as="targetPoint" />
          </mxGeometry>
        </mxCell>
        <mxCell id="y-tZRomW3wRnPxOMZ4p1-198" value="" style="endArrow=none;html=1;rounded=0;fontSize=12;startSize=8;endSize=8;curved=1;entryX=0.332;entryY=0.969;entryDx=0;entryDy=0;entryPerimeter=0;strokeColor=#000000;" edge="1" parent="1" target="y-tZRomW3wRnPxOMZ4p1-107">
          <mxGeometry width="50" height="50" relative="1" as="geometry">
            <mxPoint x="280" y="1460" as="sourcePoint" />
            <mxPoint x="310" y="1310" as="targetPoint" />
          </mxGeometry>
        </mxCell>
        <mxCell id="y-tZRomW3wRnPxOMZ4p1-199" value="" style="endArrow=none;html=1;rounded=0;fontSize=12;startSize=8;endSize=8;curved=1;strokeColor=#000000;" edge="1" parent="1">
          <mxGeometry width="50" height="50" relative="1" as="geometry">
            <mxPoint x="260" y="1470" as="sourcePoint" />
            <mxPoint x="350" y="1470" as="targetPoint" />
          </mxGeometry>
        </mxCell>
        <mxCell id="y-tZRomW3wRnPxOMZ4p1-200" value="" style="endArrow=none;html=1;rounded=0;fontSize=12;startSize=8;endSize=8;curved=1;strokeColor=#000000;" edge="1" parent="1">
          <mxGeometry width="50" height="50" relative="1" as="geometry">
            <mxPoint x="280" y="1460" as="sourcePoint" />
            <mxPoint x="390" y="1460" as="targetPoint" />
          </mxGeometry>
        </mxCell>
        <mxCell id="y-tZRomW3wRnPxOMZ4p1-201" value="" style="curved=1;endArrow=classic;html=1;rounded=0;strokeColor=#000000;" edge="1" parent="1">
          <mxGeometry width="50" height="50" relative="1" as="geometry">
            <mxPoint x="390" y="1510" as="sourcePoint" />
            <mxPoint x="390" y="1550" as="targetPoint" />
            <Array as="points">
              <mxPoint x="370" y="1510" />
              <mxPoint x="370" y="1550" />
            </Array>
          </mxGeometry>
        </mxCell>
        <mxCell id="y-tZRomW3wRnPxOMZ4p1-202" value="" style="endArrow=none;html=1;rounded=0;fontSize=12;startSize=8;endSize=8;curved=1;strokeColor=#000000;" edge="1" parent="1">
          <mxGeometry width="50" height="50" relative="1" as="geometry">
            <mxPoint x="350" y="1470" as="sourcePoint" />
            <mxPoint x="350" y="1510" as="targetPoint" />
          </mxGeometry>
        </mxCell>
        <mxCell id="y-tZRomW3wRnPxOMZ4p1-203" value="" style="endArrow=none;html=1;rounded=0;fontSize=12;startSize=8;endSize=8;curved=1;strokeColor=#000000;" edge="1" parent="1">
          <mxGeometry width="50" height="50" relative="1" as="geometry">
            <mxPoint x="390" y="1460" as="sourcePoint" />
            <mxPoint x="390" y="1510" as="targetPoint" />
          </mxGeometry>
        </mxCell>
        <mxCell id="y-tZRomW3wRnPxOMZ4p1-204" value="" style="curved=1;endArrow=classic;html=1;rounded=0;strokeColor=#000000;" edge="1" parent="1">
          <mxGeometry width="50" height="50" relative="1" as="geometry">
            <mxPoint x="350" y="1510" as="sourcePoint" />
            <mxPoint x="350" y="1550" as="targetPoint" />
            <Array as="points">
              <mxPoint x="330" y="1510" />
              <mxPoint x="330" y="1550" />
            </Array>
          </mxGeometry>
        </mxCell>
        <mxCell id="y-tZRomW3wRnPxOMZ4p1-205" value="" style="endArrow=none;html=1;rounded=0;fontSize=12;startSize=8;endSize=8;curved=1;" edge="1" parent="1">
          <mxGeometry width="50" height="50" relative="1" as="geometry">
            <mxPoint x="190" y="1650" as="sourcePoint" />
            <mxPoint x="190" y="1620" as="targetPoint" />
          </mxGeometry>
        </mxCell>
        <mxCell id="y-tZRomW3wRnPxOMZ4p1-206" value="" style="curved=1;endArrow=classic;html=1;rounded=0;strokeColor=#000000;" edge="1" parent="1">
          <mxGeometry width="50" height="50" relative="1" as="geometry">
            <mxPoint x="230" y="1630" as="sourcePoint" />
            <mxPoint x="260" y="1630" as="targetPoint" />
            <Array as="points">
              <mxPoint x="230" y="1610" />
              <mxPoint x="260" y="1610" />
            </Array>
          </mxGeometry>
        </mxCell>
        <mxCell id="y-tZRomW3wRnPxOMZ4p1-207" value="" style="endArrow=none;html=1;rounded=0;fontSize=12;startSize=8;endSize=8;curved=1;exitX=0.932;exitY=0.997;exitDx=0;exitDy=0;exitPerimeter=0;strokeColor=#000000;" edge="1" parent="1" source="y-tZRomW3wRnPxOMZ4p1-126">
          <mxGeometry width="50" height="50" relative="1" as="geometry">
            <mxPoint x="190" y="1620" as="sourcePoint" />
            <mxPoint x="230" y="1630" as="targetPoint" />
          </mxGeometry>
        </mxCell>
        <mxCell id="y-tZRomW3wRnPxOMZ4p1-208" value="" style="endArrow=none;html=1;rounded=0;fontSize=12;startSize=8;endSize=8;curved=1;strokeColor=#000000;" edge="1" parent="1">
          <mxGeometry width="50" height="50" relative="1" as="geometry">
            <mxPoint x="350" y="1660" as="sourcePoint" />
            <mxPoint x="350" y="1550" as="targetPoint" />
          </mxGeometry>
        </mxCell>
        <mxCell id="y-tZRomW3wRnPxOMZ4p1-209" value="" style="endArrow=none;html=1;rounded=0;fontSize=12;startSize=8;endSize=8;curved=1;strokeColor=#000000;" edge="1" parent="1">
          <mxGeometry width="50" height="50" relative="1" as="geometry">
            <mxPoint x="350" y="1660" as="sourcePoint" />
            <mxPoint x="640" y="1660" as="targetPoint" />
          </mxGeometry>
        </mxCell>
        <mxCell id="y-tZRomW3wRnPxOMZ4p1-210" value="" style="endArrow=none;html=1;rounded=0;fontSize=12;startSize=8;endSize=8;curved=1;strokeColor=#000000;" edge="1" parent="1">
          <mxGeometry width="50" height="50" relative="1" as="geometry">
            <mxPoint x="390" y="1650" as="sourcePoint" />
            <mxPoint x="390" y="1550" as="targetPoint" />
          </mxGeometry>
        </mxCell>
        <mxCell id="y-tZRomW3wRnPxOMZ4p1-211" value="" style="endArrow=none;html=1;rounded=0;fontSize=12;startSize=8;endSize=8;curved=1;strokeColor=#000000;" edge="1" parent="1">
          <mxGeometry width="50" height="50" relative="1" as="geometry">
            <mxPoint x="390" y="1650" as="sourcePoint" />
            <mxPoint x="670" y="1650" as="targetPoint" />
          </mxGeometry>
        </mxCell>
        <mxCell id="y-tZRomW3wRnPxOMZ4p1-212" value="" style="endArrow=none;html=1;rounded=0;fontSize=12;startSize=8;endSize=8;curved=1;strokeColor=#000000;" edge="1" parent="1">
          <mxGeometry width="50" height="50" relative="1" as="geometry">
            <mxPoint x="260" y="1630" as="sourcePoint" />
            <mxPoint x="340" y="1630" as="targetPoint" />
          </mxGeometry>
        </mxCell>
        <mxCell id="y-tZRomW3wRnPxOMZ4p1-213" value="" style="endArrow=none;html=1;rounded=0;fontSize=12;startSize=8;endSize=8;curved=1;strokeColor=#000000;" edge="1" parent="1">
          <mxGeometry width="50" height="50" relative="1" as="geometry">
            <mxPoint x="340" y="1690" as="sourcePoint" />
            <mxPoint x="340" y="1630" as="targetPoint" />
          </mxGeometry>
        </mxCell>
        <mxCell id="y-tZRomW3wRnPxOMZ4p1-217" value="" style="endArrow=none;html=1;rounded=0;fontSize=12;startSize=8;endSize=8;curved=1;strokeColor=#000000;" edge="1" parent="1">
          <mxGeometry width="50" height="50" relative="1" as="geometry">
            <mxPoint x="340" y="1690" as="sourcePoint" />
            <mxPoint x="620" y="1690" as="targetPoint" />
          </mxGeometry>
        </mxCell>
        <mxCell id="y-tZRomW3wRnPxOMZ4p1-219" value="" style="endArrow=none;html=1;rounded=0;fontSize=12;startSize=8;endSize=8;curved=1;strokeColor=#000000;" edge="1" parent="1">
          <mxGeometry width="50" height="50" relative="1" as="geometry">
            <mxPoint x="670" y="1650" as="sourcePoint" />
            <mxPoint x="670" y="1740" as="targetPoint" />
          </mxGeometry>
        </mxCell>
        <mxCell id="y-tZRomW3wRnPxOMZ4p1-220" value="" style="endArrow=none;html=1;rounded=0;fontSize=12;startSize=8;endSize=8;curved=1;exitX=1.007;exitY=0.662;exitDx=0;exitDy=0;exitPerimeter=0;strokeColor=#000000;" edge="1" parent="1">
          <mxGeometry width="50" height="50" relative="1" as="geometry">
            <mxPoint x="510.84000000000026" y="1850.0000000000002" as="sourcePoint" />
            <mxPoint x="880" y="1850.2800000000002" as="targetPoint" />
          </mxGeometry>
        </mxCell>
        <mxCell id="y-tZRomW3wRnPxOMZ4p1-221" value="" style="endArrow=none;html=1;rounded=0;fontSize=12;startSize=8;endSize=8;curved=1;strokeColor=#000000;" edge="1" parent="1">
          <mxGeometry width="50" height="50" relative="1" as="geometry">
            <mxPoint x="620" y="1690" as="sourcePoint" />
            <mxPoint x="620" y="1740" as="targetPoint" />
          </mxGeometry>
        </mxCell>
        <mxCell id="y-tZRomW3wRnPxOMZ4p1-222" value="" style="endArrow=none;html=1;rounded=0;fontSize=12;startSize=8;endSize=8;curved=1;strokeColor=#000000;" edge="1" parent="1">
          <mxGeometry width="50" height="50" relative="1" as="geometry">
            <mxPoint x="640" y="1740" as="sourcePoint" />
            <mxPoint x="640" y="1660" as="targetPoint" />
          </mxGeometry>
        </mxCell>
        <mxCell id="y-tZRomW3wRnPxOMZ4p1-223" value="" style="curved=1;endArrow=classic;html=1;rounded=0;strokeColor=#000000;" edge="1" parent="1">
          <mxGeometry width="50" height="50" relative="1" as="geometry">
            <mxPoint x="620" y="1740" as="sourcePoint" />
            <mxPoint x="620" y="1780" as="targetPoint" />
            <Array as="points">
              <mxPoint x="600" y="1740" />
              <mxPoint x="600" y="1780" />
            </Array>
          </mxGeometry>
        </mxCell>
        <mxCell id="y-tZRomW3wRnPxOMZ4p1-224" value="" style="curved=1;endArrow=classic;html=1;rounded=0;strokeColor=#000000;" edge="1" parent="1">
          <mxGeometry width="50" height="50" relative="1" as="geometry">
            <mxPoint x="640" y="1740" as="sourcePoint" />
            <mxPoint x="640" y="1780" as="targetPoint" />
            <Array as="points">
              <mxPoint x="620" y="1740" />
              <mxPoint x="620" y="1780" />
            </Array>
          </mxGeometry>
        </mxCell>
        <mxCell id="y-tZRomW3wRnPxOMZ4p1-225" value="" style="curved=1;endArrow=classic;html=1;rounded=0;strokeColor=#000000;" edge="1" parent="1">
          <mxGeometry width="50" height="50" relative="1" as="geometry">
            <mxPoint x="670" y="1740" as="sourcePoint" />
            <mxPoint x="670" y="1780" as="targetPoint" />
            <Array as="points">
              <mxPoint x="650" y="1740" />
              <mxPoint x="650" y="1780" />
            </Array>
          </mxGeometry>
        </mxCell>
        <mxCell id="y-tZRomW3wRnPxOMZ4p1-228" value="" style="rounded=0;whiteSpace=wrap;html=1;fontSize=16;" vertex="1" parent="1">
          <mxGeometry x="880" y="1720" width="30" height="150" as="geometry" />
        </mxCell>
        <mxCell id="y-tZRomW3wRnPxOMZ4p1-236" value="" style="swimlane;startSize=0;fontSize=16;" vertex="1" parent="1">
          <mxGeometry x="880" y="1720" width="30" height="30" as="geometry" />
        </mxCell>
        <mxCell id="y-tZRomW3wRnPxOMZ4p1-237" value="" style="swimlane;startSize=0;fontSize=16;" vertex="1" parent="1">
          <mxGeometry x="880" y="1750" width="30" height="90" as="geometry" />
        </mxCell>
        <mxCell id="y-tZRomW3wRnPxOMZ4p1-238" value="" style="swimlane;startSize=0;fontSize=16;" vertex="1" parent="y-tZRomW3wRnPxOMZ4p1-237">
          <mxGeometry y="30" width="30" height="60" as="geometry" />
        </mxCell>
        <mxCell id="y-tZRomW3wRnPxOMZ4p1-240" value="" style="swimlane;startSize=0;fontSize=16;" vertex="1" parent="y-tZRomW3wRnPxOMZ4p1-238">
          <mxGeometry y="30" width="30" height="30" as="geometry" />
        </mxCell>
        <mxCell id="y-tZRomW3wRnPxOMZ4p1-241" value="" style="endArrow=none;html=1;rounded=0;fontSize=12;startSize=8;endSize=8;curved=1;" edge="1" parent="1">
          <mxGeometry width="50" height="50" relative="1" as="geometry">
            <mxPoint x="1050" y="1720" as="sourcePoint" />
            <mxPoint x="910" y="1720" as="targetPoint" />
          </mxGeometry>
        </mxCell>
        <mxCell id="y-tZRomW3wRnPxOMZ4p1-242" value="" style="endArrow=none;html=1;rounded=0;fontSize=12;startSize=8;endSize=8;curved=1;" edge="1" parent="1">
          <mxGeometry width="50" height="50" relative="1" as="geometry">
            <mxPoint x="1050" y="1870" as="sourcePoint" />
            <mxPoint x="910" y="1870" as="targetPoint" />
          </mxGeometry>
        </mxCell>
        <mxCell id="y-tZRomW3wRnPxOMZ4p1-243" value="" style="endArrow=none;html=1;rounded=0;fontSize=12;startSize=8;endSize=8;curved=1;" edge="1" parent="1">
          <mxGeometry width="50" height="50" relative="1" as="geometry">
            <mxPoint x="1110" y="1790" as="sourcePoint" />
            <mxPoint x="1050" y="1720" as="targetPoint" />
          </mxGeometry>
        </mxCell>
        <mxCell id="y-tZRomW3wRnPxOMZ4p1-244" value="" style="endArrow=none;html=1;rounded=0;fontSize=12;startSize=8;endSize=8;curved=1;" edge="1" parent="1">
          <mxGeometry width="50" height="50" relative="1" as="geometry">
            <mxPoint x="1110" y="1790" as="sourcePoint" />
            <mxPoint x="1050" y="1870" as="targetPoint" />
          </mxGeometry>
        </mxCell>
        <mxCell id="y-tZRomW3wRnPxOMZ4p1-245" value="" style="endArrow=none;html=1;rounded=0;fontSize=12;startSize=8;endSize=8;curved=1;strokeColor=#000000;" edge="1" parent="1">
          <mxGeometry width="50" height="50" relative="1" as="geometry">
            <mxPoint x="620" y="1780" as="sourcePoint" />
            <mxPoint x="620" y="1820" as="targetPoint" />
          </mxGeometry>
        </mxCell>
        <mxCell id="y-tZRomW3wRnPxOMZ4p1-246" value="" style="endArrow=none;html=1;rounded=0;fontSize=12;startSize=8;endSize=8;curved=1;strokeColor=#000000;" edge="1" parent="1">
          <mxGeometry width="50" height="50" relative="1" as="geometry">
            <mxPoint x="640" y="1780" as="sourcePoint" />
            <mxPoint x="640" y="1820" as="targetPoint" />
          </mxGeometry>
        </mxCell>
        <mxCell id="y-tZRomW3wRnPxOMZ4p1-247" value="" style="endArrow=none;html=1;rounded=0;fontSize=12;startSize=8;endSize=8;curved=1;strokeColor=#000000;" edge="1" parent="1">
          <mxGeometry width="50" height="50" relative="1" as="geometry">
            <mxPoint x="670" y="1780" as="sourcePoint" />
            <mxPoint x="670" y="1820" as="targetPoint" />
          </mxGeometry>
        </mxCell>
        <mxCell id="y-tZRomW3wRnPxOMZ4p1-248" value="" style="curved=1;endArrow=classic;html=1;rounded=0;strokeColor=#000000;" edge="1" parent="1">
          <mxGeometry width="50" height="50" relative="1" as="geometry">
            <mxPoint x="620" y="1820" as="sourcePoint" />
            <mxPoint x="620" y="1860" as="targetPoint" />
            <Array as="points">
              <mxPoint x="600" y="1820" />
              <mxPoint x="600" y="1860" />
            </Array>
          </mxGeometry>
        </mxCell>
        <mxCell id="y-tZRomW3wRnPxOMZ4p1-249" value="" style="curved=1;endArrow=classic;html=1;rounded=0;strokeColor=#000000;" edge="1" parent="1">
          <mxGeometry width="50" height="50" relative="1" as="geometry">
            <mxPoint x="640" y="1820" as="sourcePoint" />
            <mxPoint x="640" y="1860" as="targetPoint" />
            <Array as="points">
              <mxPoint x="620" y="1820" />
              <mxPoint x="620" y="1860" />
            </Array>
          </mxGeometry>
        </mxCell>
        <mxCell id="y-tZRomW3wRnPxOMZ4p1-250" value="" style="curved=1;endArrow=classic;html=1;rounded=0;strokeColor=#000000;" edge="1" parent="1">
          <mxGeometry width="50" height="50" relative="1" as="geometry">
            <mxPoint x="670" y="1820" as="sourcePoint" />
            <mxPoint x="670" y="1860" as="targetPoint" />
            <Array as="points">
              <mxPoint x="650" y="1820" />
              <mxPoint x="650" y="1860" />
            </Array>
          </mxGeometry>
        </mxCell>
        <mxCell id="y-tZRomW3wRnPxOMZ4p1-251" value="" style="endArrow=none;html=1;rounded=0;fontSize=12;startSize=8;endSize=8;curved=1;strokeColor=#000000;" edge="1" parent="1">
          <mxGeometry width="50" height="50" relative="1" as="geometry">
            <mxPoint x="550" y="2040" as="sourcePoint" />
            <mxPoint x="550" y="1850" as="targetPoint" />
          </mxGeometry>
        </mxCell>
        <mxCell id="y-tZRomW3wRnPxOMZ4p1-252" value="" style="endArrow=none;html=1;rounded=0;fontSize=12;startSize=8;endSize=8;curved=1;" edge="1" parent="1" source="y-tZRomW3wRnPxOMZ4p1-258">
          <mxGeometry width="50" height="50" relative="1" as="geometry">
            <mxPoint x="930" y="2040" as="sourcePoint" />
            <mxPoint x="550" y="2040" as="targetPoint" />
          </mxGeometry>
        </mxCell>
        <mxCell id="y-tZRomW3wRnPxOMZ4p1-253" value="" style="endArrow=none;html=1;rounded=0;fontSize=12;startSize=8;endSize=8;curved=1;strokeColor=#000000;" edge="1" parent="1">
          <mxGeometry width="50" height="50" relative="1" as="geometry">
            <mxPoint x="620" y="1990" as="sourcePoint" />
            <mxPoint x="620" y="1860" as="targetPoint" />
          </mxGeometry>
        </mxCell>
        <mxCell id="y-tZRomW3wRnPxOMZ4p1-254" value="" style="endArrow=none;html=1;rounded=0;fontSize=12;startSize=8;endSize=8;curved=1;strokeColor=#000000;" edge="1" parent="1">
          <mxGeometry width="50" height="50" relative="1" as="geometry">
            <mxPoint x="640" y="2040" as="sourcePoint" />
            <mxPoint x="640" y="1860" as="targetPoint" />
          </mxGeometry>
        </mxCell>
        <mxCell id="y-tZRomW3wRnPxOMZ4p1-255" value="" style="endArrow=none;html=1;rounded=0;fontSize=12;startSize=8;endSize=8;curved=1;strokeColor=#000000;" edge="1" parent="1">
          <mxGeometry width="50" height="50" relative="1" as="geometry">
            <mxPoint x="670" y="1990" as="sourcePoint" />
            <mxPoint x="670" y="1860" as="targetPoint" />
          </mxGeometry>
        </mxCell>
        <mxCell id="y-tZRomW3wRnPxOMZ4p1-256" value="" style="endArrow=none;html=1;rounded=0;fontSize=12;startSize=8;endSize=8;curved=1;strokeColor=#000000;" edge="1" parent="1">
          <mxGeometry width="50" height="50" relative="1" as="geometry">
            <mxPoint x="640" y="2040" as="sourcePoint" />
            <mxPoint x="620" y="1990" as="targetPoint" />
          </mxGeometry>
        </mxCell>
        <mxCell id="y-tZRomW3wRnPxOMZ4p1-257" value="" style="endArrow=none;html=1;rounded=0;fontSize=12;startSize=8;endSize=8;curved=1;strokeColor=#000000;" edge="1" parent="1">
          <mxGeometry width="50" height="50" relative="1" as="geometry">
            <mxPoint x="640" y="2040" as="sourcePoint" />
            <mxPoint x="670" y="1990" as="targetPoint" />
          </mxGeometry>
        </mxCell>
        <mxCell id="y-tZRomW3wRnPxOMZ4p1-259" value="" style="endArrow=none;html=1;rounded=0;fontSize=12;startSize=8;endSize=8;curved=1;" edge="1" parent="1" target="y-tZRomW3wRnPxOMZ4p1-258">
          <mxGeometry width="50" height="50" relative="1" as="geometry">
            <mxPoint x="930" y="2040" as="sourcePoint" />
            <mxPoint x="550" y="2040" as="targetPoint" />
          </mxGeometry>
        </mxCell>
        <mxCell id="y-tZRomW3wRnPxOMZ4p1-258" value="" style="shape=waypoint;sketch=0;fillStyle=solid;size=6;pointerEvents=1;points=[];fillColor=none;resizable=0;rotatable=0;perimeter=centerPerimeter;snapToPoint=1;fontSize=16;" vertex="1" parent="1">
          <mxGeometry x="630" y="2030" width="20" height="20" as="geometry" />
        </mxCell>
        <mxCell id="y-tZRomW3wRnPxOMZ4p1-260" value="820 K" style="rounded=0;whiteSpace=wrap;html=1;fontSize=16;" vertex="1" parent="1">
          <mxGeometry x="930" y="2030" width="90" height="20" as="geometry" />
        </mxCell>
        <mxCell id="y-tZRomW3wRnPxOMZ4p1-261" value="" style="endArrow=none;html=1;rounded=0;fontSize=12;startSize=8;endSize=8;curved=1;entryX=1;entryY=0.5;entryDx=0;entryDy=0;" edge="1" parent="1" source="y-tZRomW3wRnPxOMZ4p1-264" target="y-tZRomW3wRnPxOMZ4p1-260">
          <mxGeometry width="50" height="50" relative="1" as="geometry">
            <mxPoint x="1190" y="2040" as="sourcePoint" />
            <mxPoint x="900" y="2080" as="targetPoint" />
          </mxGeometry>
        </mxCell>
        <mxCell id="y-tZRomW3wRnPxOMZ4p1-262" value="270 K" style="rounded=0;whiteSpace=wrap;html=1;fontSize=16;" vertex="1" parent="1">
          <mxGeometry x="1190" y="2030" width="90" height="20" as="geometry" />
        </mxCell>
        <mxCell id="y-tZRomW3wRnPxOMZ4p1-263" value="" style="endArrow=none;html=1;rounded=0;fontSize=12;startSize=8;endSize=8;curved=1;fillColor=#1ba1e2;strokeColor=#006EAF;" edge="1" parent="1">
          <mxGeometry width="50" height="50" relative="1" as="geometry">
            <mxPoint x="1110" y="2040" as="sourcePoint" />
            <mxPoint x="1110" y="2070" as="targetPoint" />
          </mxGeometry>
        </mxCell>
        <mxCell id="y-tZRomW3wRnPxOMZ4p1-265" value="" style="endArrow=none;html=1;rounded=0;fontSize=12;startSize=8;endSize=8;curved=1;entryDx=0;entryDy=0;" edge="1" parent="1" target="y-tZRomW3wRnPxOMZ4p1-264">
          <mxGeometry width="50" height="50" relative="1" as="geometry">
            <mxPoint x="1190" y="2040" as="sourcePoint" />
            <mxPoint x="1020" y="2040" as="targetPoint" />
          </mxGeometry>
        </mxCell>
        <mxCell id="y-tZRomW3wRnPxOMZ4p1-264" value="" style="shape=waypoint;sketch=0;fillStyle=solid;size=6;pointerEvents=1;points=[];fillColor=none;resizable=0;rotatable=0;perimeter=centerPerimeter;snapToPoint=1;fontSize=16;" vertex="1" parent="1">
          <mxGeometry x="1100" y="2030" width="20" height="20" as="geometry" />
        </mxCell>
        <mxCell id="y-tZRomW3wRnPxOMZ4p1-266" value="" style="endArrow=none;html=1;rounded=0;fontSize=12;startSize=8;endSize=8;curved=1;" edge="1" parent="1">
          <mxGeometry width="50" height="50" relative="1" as="geometry">
            <mxPoint x="850" y="1840" as="sourcePoint" />
            <mxPoint x="850" y="1820" as="targetPoint" />
          </mxGeometry>
        </mxCell>
        <mxCell id="y-tZRomW3wRnPxOMZ4p1-267" value="" style="curved=1;endArrow=classic;html=1;rounded=0;strokeColor=#FFFFFF;fillColor=#1ba1e2;" edge="1" parent="1">
          <mxGeometry width="50" height="50" relative="1" as="geometry">
            <mxPoint x="850" y="1840" as="sourcePoint" />
            <mxPoint x="850" y="1880" as="targetPoint" />
            <Array as="points">
              <mxPoint x="830" y="1840" />
              <mxPoint x="830" y="1880" />
            </Array>
          </mxGeometry>
        </mxCell>
        <mxCell id="y-tZRomW3wRnPxOMZ4p1-268" value="" style="endArrow=none;html=1;rounded=0;fontSize=12;startSize=8;endSize=8;curved=1;" edge="1" parent="1">
          <mxGeometry width="50" height="50" relative="1" as="geometry">
            <mxPoint x="850" y="1980" as="sourcePoint" />
            <mxPoint x="850" y="1880" as="targetPoint" />
          </mxGeometry>
        </mxCell>
        <mxCell id="y-tZRomW3wRnPxOMZ4p1-269" value="" style="endArrow=none;html=1;rounded=0;fontSize=12;startSize=8;endSize=8;curved=1;" edge="1" parent="1">
          <mxGeometry width="50" height="50" relative="1" as="geometry">
            <mxPoint x="850" y="1980" as="sourcePoint" />
            <mxPoint x="1310" y="1980" as="targetPoint" />
          </mxGeometry>
        </mxCell>
        <mxCell id="y-tZRomW3wRnPxOMZ4p1-270" value="" style="endArrow=none;html=1;rounded=0;fontSize=12;startSize=8;endSize=8;curved=1;" edge="1" parent="1">
          <mxGeometry width="50" height="50" relative="1" as="geometry">
            <mxPoint x="1310" y="2040" as="sourcePoint" />
            <mxPoint x="1310" y="1980" as="targetPoint" />
          </mxGeometry>
        </mxCell>
        <mxCell id="y-tZRomW3wRnPxOMZ4p1-271" value="" style="endArrow=none;html=1;rounded=0;fontSize=12;startSize=8;endSize=8;curved=1;exitX=1;exitY=0.5;exitDx=0;exitDy=0;" edge="1" parent="1" source="y-tZRomW3wRnPxOMZ4p1-262">
          <mxGeometry width="50" height="50" relative="1" as="geometry">
            <mxPoint x="1100" y="1970" as="sourcePoint" />
            <mxPoint x="1310" y="2040" as="targetPoint" />
          </mxGeometry>
        </mxCell>
        <mxCell id="y-tZRomW3wRnPxOMZ4p1-272" value="" style="endArrow=none;html=1;rounded=0;fontSize=12;startSize=8;endSize=8;curved=1;entryX=-0.006;entryY=0.322;entryDx=0;entryDy=0;entryPerimeter=0;" edge="1" parent="1" target="y-tZRomW3wRnPxOMZ4p1-240">
          <mxGeometry width="50" height="50" relative="1" as="geometry">
            <mxPoint x="850" y="1820" as="sourcePoint" />
            <mxPoint x="1010" y="1770" as="targetPoint" />
          </mxGeometry>
        </mxCell>
        <mxCell id="y-tZRomW3wRnPxOMZ4p1-273" value="" style="endArrow=none;html=1;rounded=0;fontSize=12;startSize=8;endSize=8;curved=1;exitX=0.962;exitY=0.664;exitDx=0;exitDy=0;exitPerimeter=0;fillColor=#1ba1e2;strokeColor=#006EAF;" edge="1" parent="1" source="y-tZRomW3wRnPxOMZ4p1-110">
          <mxGeometry width="50" height="50" relative="1" as="geometry">
            <mxPoint x="440" y="1270" as="sourcePoint" />
            <mxPoint x="1320" y="1280" as="targetPoint" />
          </mxGeometry>
        </mxCell>
        <mxCell id="y-tZRomW3wRnPxOMZ4p1-274" value="" style="endArrow=none;html=1;rounded=0;fontSize=12;startSize=8;endSize=8;curved=1;fillColor=#1ba1e2;strokeColor=#006EAF;" edge="1" parent="1">
          <mxGeometry width="50" height="50" relative="1" as="geometry">
            <mxPoint x="1320" y="2070" as="sourcePoint" />
            <mxPoint x="1320" y="1280" as="targetPoint" />
          </mxGeometry>
        </mxCell>
        <mxCell id="y-tZRomW3wRnPxOMZ4p1-275" value="" style="endArrow=none;html=1;rounded=0;fontSize=12;startSize=8;endSize=8;curved=1;fillColor=#1ba1e2;strokeColor=#006EAF;" edge="1" parent="1">
          <mxGeometry width="50" height="50" relative="1" as="geometry">
            <mxPoint x="1110" y="2070" as="sourcePoint" />
            <mxPoint x="1320" y="2070" as="targetPoint" />
          </mxGeometry>
        </mxCell>
        <mxCell id="y-tZRomW3wRnPxOMZ4p1-276" value="" style="endArrow=none;html=1;rounded=0;fontSize=12;startSize=8;endSize=8;curved=1;" edge="1" parent="1">
          <mxGeometry width="50" height="50" relative="1" as="geometry">
            <mxPoint x="820" y="1430" as="sourcePoint" />
            <mxPoint x="820" y="1380" as="targetPoint" />
          </mxGeometry>
        </mxCell>
        <mxCell id="y-tZRomW3wRnPxOMZ4p1-277" value="" style="endArrow=none;html=1;rounded=0;fontSize=12;startSize=8;endSize=8;curved=1;" edge="1" parent="1">
          <mxGeometry width="50" height="50" relative="1" as="geometry">
            <mxPoint x="1280" y="1430" as="sourcePoint" />
            <mxPoint x="820" y="1430" as="targetPoint" />
          </mxGeometry>
        </mxCell>
        <mxCell id="y-tZRomW3wRnPxOMZ4p1-278" value="" style="endArrow=none;html=1;rounded=0;fontSize=12;startSize=8;endSize=8;curved=1;" edge="1" parent="1">
          <mxGeometry width="50" height="50" relative="1" as="geometry">
            <mxPoint x="1280" y="1790" as="sourcePoint" />
            <mxPoint x="1280" y="1430" as="targetPoint" />
          </mxGeometry>
        </mxCell>
        <mxCell id="y-tZRomW3wRnPxOMZ4p1-279" value="" style="endArrow=none;html=1;rounded=0;fontSize=12;startSize=8;endSize=8;curved=1;" edge="1" parent="1">
          <mxGeometry width="50" height="50" relative="1" as="geometry">
            <mxPoint x="1110" y="1790" as="sourcePoint" />
            <mxPoint x="1280" y="1790" as="targetPoint" />
          </mxGeometry>
        </mxCell>
        <mxCell id="y-tZRomW3wRnPxOMZ4p1-280" value="ODroid Power" style="rounded=0;whiteSpace=wrap;html=1;fontSize=16;" vertex="1" parent="1">
          <mxGeometry x="940" y="1610" width="120" height="60" as="geometry" />
        </mxCell>
        <mxCell id="y-tZRomW3wRnPxOMZ4p1-281" value="" style="endArrow=none;html=1;rounded=0;fontSize=12;startSize=8;endSize=8;curved=1;" edge="1" parent="1">
          <mxGeometry width="50" height="50" relative="1" as="geometry">
            <mxPoint x="860" y="1640" as="sourcePoint" />
            <mxPoint x="670" y="1580" as="targetPoint" />
          </mxGeometry>
        </mxCell>
        <mxCell id="y-tZRomW3wRnPxOMZ4p1-283" value="" style="endArrow=classic;html=1;rounded=0;fontSize=12;startSize=8;endSize=8;curved=1;entryX=0;entryY=0.5;entryDx=0;entryDy=0;" edge="1" parent="1" target="y-tZRomW3wRnPxOMZ4p1-280">
          <mxGeometry width="50" height="50" relative="1" as="geometry">
            <mxPoint x="860" y="1640" as="sourcePoint" />
            <mxPoint x="690" y="1700" as="targetPoint" />
          </mxGeometry>
        </mxCell>
        <mxCell id="y-tZRomW3wRnPxOMZ4p1-295" value="" style="endArrow=none;html=1;rounded=0;fontSize=12;startSize=8;endSize=8;curved=1;entryX=0.5;entryY=1;entryDx=0;entryDy=0;" edge="1" parent="1" target="y-tZRomW3wRnPxOMZ4p1-291">
          <mxGeometry width="50" height="50" relative="1" as="geometry">
            <mxPoint x="820" y="1380" as="sourcePoint" />
            <mxPoint x="780" y="1390" as="targetPoint" />
          </mxGeometry>
        </mxCell>
        <mxCell id="y-tZRomW3wRnPxOMZ4p1-296" value="" style="shape=offPageConnector;whiteSpace=wrap;html=1;fontSize=16;rotation=90;" vertex="1" parent="1">
          <mxGeometry x="842.5" y="1330" width="10" height="25" as="geometry" />
        </mxCell>
        <mxCell id="y-tZRomW3wRnPxOMZ4p1-298" value="" style="endArrow=none;html=1;rounded=0;fontSize=12;startSize=8;endSize=8;curved=1;" edge="1" parent="1" source="y-tZRomW3wRnPxOMZ4p1-302">
          <mxGeometry width="50" height="50" relative="1" as="geometry">
            <mxPoint x="670" y="1580" as="sourcePoint" />
            <mxPoint x="580" y="1540" as="targetPoint" />
          </mxGeometry>
        </mxCell>
        <mxCell id="y-tZRomW3wRnPxOMZ4p1-299" value="" style="endArrow=none;html=1;rounded=0;fontSize=12;startSize=8;endSize=8;curved=1;" edge="1" parent="1" source="y-tZRomW3wRnPxOMZ4p1-306">
          <mxGeometry width="50" height="50" relative="1" as="geometry">
            <mxPoint x="670" y="1580" as="sourcePoint" />
            <mxPoint x="630" y="1490" as="targetPoint" />
          </mxGeometry>
        </mxCell>
        <mxCell id="y-tZRomW3wRnPxOMZ4p1-300" value="" style="endArrow=none;html=1;rounded=0;fontSize=12;startSize=8;endSize=8;curved=1;fillColor=#a20025;strokeColor=#6F0000;" edge="1" parent="1">
          <mxGeometry width="50" height="50" relative="1" as="geometry">
            <mxPoint x="579.87" y="1520" as="sourcePoint" />
            <mxPoint x="579.87" y="1340" as="targetPoint" />
          </mxGeometry>
        </mxCell>
        <mxCell id="y-tZRomW3wRnPxOMZ4p1-301" value="" style="shape=waypoint;sketch=0;fillStyle=solid;size=6;pointerEvents=1;points=[];fillColor=#a20025;resizable=0;rotatable=0;perimeter=centerPerimeter;snapToPoint=1;fontSize=16;fontColor=#ffffff;strokeColor=#6F0000;" vertex="1" parent="1">
          <mxGeometry x="570" y="1510" width="20" height="20" as="geometry" />
        </mxCell>
        <mxCell id="y-tZRomW3wRnPxOMZ4p1-303" value="" style="endArrow=none;html=1;rounded=0;fontSize=12;startSize=8;endSize=8;curved=1;fillColor=#a20025;strokeColor=#6F0000;" edge="1" parent="1" target="y-tZRomW3wRnPxOMZ4p1-302">
          <mxGeometry width="50" height="50" relative="1" as="geometry">
            <mxPoint x="580" y="1580" as="sourcePoint" />
            <mxPoint x="580" y="1540" as="targetPoint" />
          </mxGeometry>
        </mxCell>
        <mxCell id="y-tZRomW3wRnPxOMZ4p1-302" value="" style="shape=waypoint;sketch=0;fillStyle=solid;size=6;pointerEvents=1;points=[];fillColor=#a20025;resizable=0;rotatable=0;perimeter=centerPerimeter;snapToPoint=1;fontSize=16;fontColor=#ffffff;strokeColor=#6F0000;" vertex="1" parent="1">
          <mxGeometry x="570" y="1530" width="20" height="20" as="geometry" />
        </mxCell>
        <mxCell id="y-tZRomW3wRnPxOMZ4p1-305" value="" style="endArrow=none;html=1;rounded=0;fontSize=12;startSize=8;endSize=8;curved=1;" edge="1" parent="1">
          <mxGeometry width="50" height="50" relative="1" as="geometry">
            <mxPoint x="580" y="1490" as="sourcePoint" />
            <mxPoint x="630" y="1490" as="targetPoint" />
          </mxGeometry>
        </mxCell>
        <mxCell id="y-tZRomW3wRnPxOMZ4p1-307" value="" style="endArrow=none;html=1;rounded=0;fontSize=12;startSize=8;endSize=8;curved=1;" edge="1" parent="1" target="y-tZRomW3wRnPxOMZ4p1-306">
          <mxGeometry width="50" height="50" relative="1" as="geometry">
            <mxPoint x="670" y="1580" as="sourcePoint" />
            <mxPoint x="630" y="1490" as="targetPoint" />
          </mxGeometry>
        </mxCell>
        <mxCell id="y-tZRomW3wRnPxOMZ4p1-306" value="" style="shape=waypoint;sketch=0;fillStyle=solid;size=6;pointerEvents=1;points=[];fillColor=none;resizable=0;rotatable=0;perimeter=centerPerimeter;snapToPoint=1;fontSize=16;" vertex="1" parent="1">
          <mxGeometry x="660" y="1480" width="20" height="20" as="geometry" />
        </mxCell>
        <mxCell id="y-tZRomW3wRnPxOMZ4p1-309" value="" style="endArrow=none;html=1;rounded=0;fontSize=12;startSize=8;endSize=8;curved=1;fillColor=#a20025;strokeColor=#6F0000;" edge="1" parent="1">
          <mxGeometry width="50" height="50" relative="1" as="geometry">
            <mxPoint x="580" y="1580" as="sourcePoint" />
            <mxPoint x="670" y="1580" as="targetPoint" />
          </mxGeometry>
        </mxCell>
        <mxCell id="y-tZRomW3wRnPxOMZ4p1-310" value="" style="endArrow=none;html=1;rounded=0;fontSize=12;startSize=8;endSize=8;curved=1;exitX=0.5;exitY=1;exitDx=0;exitDy=0;fillColor=#a20025;strokeColor=#6F0000;" edge="1" parent="1" source="y-tZRomW3wRnPxOMZ4p1-296">
          <mxGeometry width="50" height="50" relative="1" as="geometry">
            <mxPoint x="410" y="1420" as="sourcePoint" />
            <mxPoint x="580" y="1340" as="targetPoint" />
          </mxGeometry>
        </mxCell>
        <mxCell id="y-tZRomW3wRnPxOMZ4p1-117" value="&lt;font style=&quot;font-size: 16px;&quot;&gt;INA219&lt;/font&gt;" style="rounded=1;whiteSpace=wrap;html=1;" vertex="1" parent="1">
          <mxGeometry x="100" y="1440" width="90" height="60" as="geometry" />
        </mxCell>
      </root>
    </mxGraphModel>
  </diagram>
</mxfile>
